Coordinates
version=1
nRows=14
nColumns=40
inDegrees=yes

Units are S.I. units (second, meters, Newtons, ...)
Angles are in degrees.

endheader
time	pelvis_tilt	pelvis_list	pelvis_rotation	pelvis_tx	pelvis_ty	pelvis_tz	hip_flexion_r	hip_adduction_r	hip_rotation_r	knee_angle_r	knee_angle_r_beta	ankle_angle_r	subtalar_angle_r	mtp_angle_r	hip_flexion_l	hip_adduction_l	hip_rotation_l	knee_angle_l	knee_angle_l_beta	ankle_angle_l	subtalar_angle_l	mtp_angle_l	lumbar_extension	lumbar_bending	lumbar_rotation	arm_flex_r	arm_add_r	arm_rot_r	elbow_flex_r	pro_sup_r	wrist_flex_r	wrist_dev_r	arm_flex_l	arm_add_l	arm_rot_l	elbow_flex_l	pro_sup_l	wrist_flex_l	wrist_dev_l
      0.55000000	     -3.21504191	     -0.53752071	      9.90386928	     -0.51791205	      0.87975015	      1.45730658	     30.55189751	     -5.40029905	    -22.69957728	    -17.70664970	     -0.30903934	      5.92362589	      0.12917579	     10.94387511	      1.29036552	      1.35034073	     11.63281756	    -27.86185015	     -0.48628102	     12.59772006	     -2.58268787	     -5.08686501	     -4.70300937	     -1.91274856	    -11.73110570	     -5.86651759	     -5.78877395	    -20.04184434	     19.18540665	     89.95437384	      0.00000000	      0.00000000	     12.93163802	     13.68793554	     12.79587613	     47.16929321	     89.95437384	      0.00000000	      0.00000000
      0.56000000	     -3.36289905	     -0.40997092	     10.07796533	     -0.50837111	      0.87872420	      1.45744942	     30.79706722	     -5.46934107	    -22.43510682	    -17.83259595	     -0.31123751	      5.86146267	      0.12638782	     10.73764849	      0.90447753	      1.39439530	     11.48116830	    -28.12543355	     -0.49088142	     12.37242434	     -2.55056770	     -5.01905121	     -4.47667935	     -2.03493164	    -11.78528528	     -6.19744026	     -5.85820826	    -19.99964217	     19.26188388	     89.95437384	      0.00000000	      0.00000000	     12.87773824	     13.71797141	     12.80626926	     47.28430746	     89.95437384	      0.00000000	      0.00000000
      0.57000000	     -3.48777846	     -0.27757331	     10.26624720	     -0.49829703	      0.87775372	      1.45766814	     30.86787779	     -5.50900481	    -22.18748995	    -18.05292014	     -0.31508290	      5.83366627	      0.05533156	     10.53660082	      0.45828499	      1.46005406	     11.29549066	    -28.38131764	     -0.49534744	     12.15823561	     -2.54835445	     -4.95812212	     -4.19724549	     -2.16599475	    -11.86824098	     -6.52290654	     -5.89961544	    -19.95973523	     19.28087788	     89.95437384	      0.00000000	      0.00000000	     12.71504895	     13.73437923	     12.81458584	     47.32260970	     89.95437384	      0.00000000	      0.00000000
      0.58000000	     -2.65979189	     -0.06957060	     10.71144308	     -0.48743505	      0.87841778	      1.45711881	     29.52223386	     -5.55699042	    -22.52290224	    -18.17062355	     -0.31713721	      6.50686455	     -0.98394353	     10.24941716	     -1.42810239	      1.54832653	     10.73300404	    -27.77041398	     -0.48468516	     11.63038429	     -3.46071558	     -5.16910193	     -4.95524430	     -2.13862503	    -12.44007179	     -6.17123330	     -5.99958052	    -20.24492403	     18.40674233	     89.95437384	      0.00000000	      0.00000000	     12.42168128	     13.79157522	     13.11966488	     47.45627836	     89.95437384	      0.00000000	      0.00000000
      0.59000000	     -2.82416165	      0.05684052	     10.83871080	     -0.47695351	      0.87729106	      1.45748257	     29.50088166	     -5.56159591	    -22.09105178	    -18.70114634	     -0.32639658	      6.25963211	     -1.02684932	     10.02208517	     -1.75551018	      1.62478388	     10.46189351	    -28.20812350	     -0.49232463	     11.29169250	     -3.34052433	     -5.06814382	     -4.60430699	     -2.26825555	    -12.39122261	     -6.61156225	     -6.05702580	    -20.17582189	     18.60371187	     89.95437384	      0.00000000	      0.00000000	     12.12444962	     13.76401060	     13.12028680	     47.52150013	     89.95437384	      0.00000000	      0.00000000
      0.60000000	     -2.20459485	     -0.02598978	     11.17583757	     -0.46560827	      0.87735668	      1.45768509	     28.78575141	     -5.34834710	    -21.86091693	    -20.06213346	     -0.35015028	      6.35743869	     -2.81017904	      9.82904801	     -3.11496682	      2.12642599	     10.05227396	    -28.19498468	     -0.49209532	     10.85644587	     -3.59617924	     -5.14510611	     -5.00697272	     -1.99454638	    -12.73591036	     -6.53164434	     -6.17977361	    -20.19574596	     18.09607656	     89.95437384	      0.00000000	      0.00000000	     11.73012162	     13.79616404	     13.26963474	     47.51090481	     89.95437384	      0.00000000	      0.00000000
      0.61000000	     -1.84172234	     -0.12258352	     11.30495871	     -0.45443448	      0.87708833	      1.45833192	     27.90000834	     -4.68005976	    -20.68994420	    -20.18571994	     -0.35230727	      5.11164427	     -5.64019041	      9.82630250	     -4.06894784	      2.59925450	      9.72471317	    -28.39855045	     -0.49564821	     10.07234316	     -3.83147613	     -5.58365119	     -5.15827017	     -1.75987283	    -12.80154921	     -6.66578004	     -6.24970538	    -20.27478219	     18.03639822	     89.95437384	      0.00000000	      0.00000000	     11.27713810	     13.77136319	     13.45666675	     47.56820434	     89.95437384	      0.00000000	      0.00000000
      0.62000000	     -1.87776677	     -0.08941457	     11.52330862	     -0.44369042	      0.87627272	      1.45862702	     27.79997506	     -4.74692363	    -21.10582843	    -21.00123835	     -0.36654076	      3.59242518	     -6.48419167	      9.87204306	     -4.38436491	      2.79494232	      9.10718713	    -28.99367834	     -0.50603515	      9.53769328	     -3.65253060	     -5.61248988	     -4.91201496	     -1.71373748	    -12.93667021	     -6.77383107	     -6.34927426	    -20.28595739	     17.87996772	     89.95437384	      0.00000000	      0.00000000	     10.82298819	     13.73488656	     13.52359463	     47.46443888	     89.95437384	      0.00000000	      0.00000000
      0.63000000	     -1.87275856	     -0.20972944	     11.69417402	     -0.43305527	      0.87582464	      1.45913448	     27.65414509	     -4.59600004	    -21.21901606	    -21.65854338	     -0.37801289	      2.65274509	     -7.36612966	      9.81859100	     -4.62646501	      3.11705262	      8.24563327	    -29.66940376	     -0.51782878	      8.84961443	     -3.24448841	     -5.57979354	     -4.69182242	     -1.49011114	    -13.00842761	     -6.77248913	     -6.46514995	    -20.31281857	     17.63525856	     89.95437384	      0.00000000	      0.00000000	     10.44445252	     13.61740823	     13.73524995	     47.10818190	     89.95437384	      0.00000000	      0.00000000
      0.64000000	     -1.93382222	     -0.41210444	     11.80370374	     -0.42253178	      0.87548794	      1.45986451	     27.70692829	     -4.37302869	    -20.91253707	    -22.60708714	     -0.39456810	      1.62782633	     -7.98563221	      9.66118612	     -4.61414049	      3.49738965	      7.33004335	    -30.60427475	     -0.53414536	      8.00454870	     -2.63067464	     -5.49241214	     -4.42098540	     -1.19416587	    -13.00618399	     -6.76829788	     -6.56309979	    -20.34657761	     17.47806682	     89.95437384	      0.00000000	      0.00000000	     10.00855438	     13.46469342	     13.95366498	     46.79744212	     89.95437384	      0.00000000	      0.00000000
      0.65000000	     -2.55924896	     -0.46326007	     11.84794921	     -0.41277238	      0.87460613	      1.46052284	     28.37523589	     -4.31076552	    -20.05327880	    -23.49470134	     -0.41005990	      0.03735839	     -9.65783919	      9.31628868	     -3.68679700	      3.43056405	      6.06949073	    -32.06239482	     -0.55959436	      7.30535024	     -1.16257372	     -5.68139546	     -3.62839480	     -1.17333854	    -13.00329151	     -6.71781880	     -6.61208163	    -20.62802058	     17.43449695	     89.95437384	      0.00000000	      0.00000000	      9.48268540	     13.27595839	     14.30601968	     46.45479576	     89.95437384	      0.00000000	      0.00000000
      0.66000000	     -2.44795115	     -0.78438193	     11.89256586	     -0.40169860	      0.87501612	      1.46143532	     28.17557994	     -3.93363252	    -19.83573981	    -24.53742519	     -0.42825886	     -0.39384709	     -9.72258984	      9.08397150	     -3.59854452	      4.01218899	      5.37723798	    -33.36547229	     -0.58233735	      5.86435680	     -0.55602923	     -5.49730167	     -3.47430553	     -0.72238399	    -12.91493081	     -6.68358771	     -6.73697482	    -20.54703802	     17.24761903	     89.95437384	      0.00000000	      0.00000000	      8.90761294	     13.05982540	     14.56757113	     46.04085568	     89.95437384	      0.00000000	      0.00000000
      0.67000000	     -2.80152403	     -0.95749671	     11.92430122	     -0.39146345	      0.87494926	      1.46203154	     28.23442541	     -3.68680012	    -19.61335708	    -24.98032582	     -0.43598893	     -0.84525044	    -10.49752321	      8.79377694	     -2.65714293	      4.19866652	      4.40847823	    -35.23515391	     -0.61496945	      4.50858723	      0.56944734	     -5.51692299	     -2.92604724	     -0.50351859	    -12.94652530	     -6.53242007	     -6.83018929	    -20.69430955	     17.09293616	     89.95437384	      0.00000000	      0.00000000	      8.22014974	     12.80756401	     15.04275255	     45.69205666	     89.95437384	      0.00000000	      0.00000000
      0.68000000	     -2.62257711	     -1.04621173	     11.67117839	     -0.38031392	      0.87585776	      1.46319851	     27.82884387	     -3.34700785	    -19.06759379	    -25.89342773	     -0.45192557	     -0.64972533	    -10.19572483	      8.45639504	     -2.51979889	      4.42227246	      3.70792471	    -36.77957702	     -0.64192472	      2.78002517	      1.04987318	     -5.21755720	     -2.94226349	     -0.30467836	    -12.55050449	     -6.59029901	     -6.92153144	    -20.56535625	     17.34933530	     89.95437384	      0.00000000	      0.00000000	      7.53479120	     12.60258571	     15.16384203	     45.41405448	     89.95437384	      0.00000000	      0.00000000
